<?xml version="1.0" encoding="utf-8"?>
<!-- Generator: Adobe Illustrator 23.0.3, SVG Export Plug-In . SVG Version: 6.00 Build 0)  -->
<svg version="1.1" id="Layer_1" xmlns="http://www.w3.org/2000/svg" xmlns:xlink="http://www.w3.org/1999/xlink" x="0px" y="0px"
	 viewBox="0 0 1200 1200" enable-background="new 0 0 1200 1200" xml:space="preserve">
<path fill="#E09B48" d="M153.544,907.035H172.8v32.979h852.153v-32.979h21.503v32.979H1150V836.471h-32.854v-21.503H1150V384.542
	h-32.854v-21.015H1150V259.985h-103.544v33.346h-21.503v-33.346H172.8v33.346h-19.256v-33.346H50v103.543h34.531V381.6H50v430.424
	h34.531v24.447H50v103.544h103.544V907.035z M1013.314,928.377H184.438v-21.341h828.876V928.377z M975.748,770.481l37.567,38.653
	v22.401l-55.445-40.671C963.349,783.632,969.335,776.808,975.748,770.481z M952.77,797.948l60.545,44.412v19.336l-77.13-34.367
	C940.88,816.976,946.436,807.133,952.77,797.948z M932.772,835.365l80.542,35.887v7.691l-89.448-14.302
	C926.019,854.737,929.003,844.928,932.772,835.365z M922.186,873.214l91.128,14.57v7.613h-93.503
	C920.151,888.007,920.946,880.58,922.186,873.214z M1019.845,803.329l-37.743-38.834c7.057-6.36,14.589-12.191,22.491-17.414
	l32.344,56.248H1019.845z M1047.01,803.329l-35.02-60.9c7.423-4.417,15.079-8.308,22.87-11.623l25.266,72.522H1047.01z
	 M1069.366,803.329l-26.388-75.744c8.795-3.261,17.843-5.863,27.024-7.771l12.985,83.515H1069.366z M1091.822,803.329
	l-13.233-85.107c8.831-1.426,17.847-2.226,26.918-2.385v87.491H1091.822z M1105.507,490.693c-7.458-0.395-16.142-1.158-23.411-2.281
	l14.746-92.232h8.665V490.693z M1073.525,486.732c-9.913-2.156-19.722-5.14-29.276-8.907l36.378-81.644h7.375L1073.525,486.732z
	 M1036.213,474.413c-10.354-4.697-20.197-10.253-29.381-16.585l45.221-61.648h19.018L1036.213,474.413z M999.746,452.728
	c-7.233-5.48-14.056-11.465-20.382-17.876l39.789-38.671h22.072L999.746,452.728z M1013.314,340.846l-76.846,26.773
	c-3.259-8.793-5.86-17.84-7.77-27.022l84.616-13.156V340.846z M1013.314,350.088v12.868l-62.002,35.653
	c-4.418-7.426-8.31-15.082-11.623-22.871L1013.314,350.088z M1013.314,373.026v16.655l-39.936,38.815
	c-6.36-7.06-12.192-14.591-17.415-22.49L1013.314,373.026z M1013.314,318.605l-86.208,13.404c-1.433-8.87-2.234-17.927-2.387-27.04
	h88.596V318.605z M913.08,304.969c0.178,11.242,1.237,22.43,3.245,33.291c2.338,12.79,5.955,25.412,10.746,37.51
	c4.415,11.161,9.965,22.12,16.494,32.583c7.027,11.211,15.21,21.79,24.322,31.439c8.618,9.146,18.202,17.552,28.476,24.978
	c12.016,8.716,25.191,16.162,39.188,22.144c13.036,5.492,26.572,9.604,40.228,12.221c9.077,1.741,20.658,2.755,29.729,3.212V704.2
	c-11.201,0.185-22.347,1.241-33.167,3.242c-12.789,2.336-25.413,5.95-37.514,10.746c-11.164,4.418-22.123,9.967-32.579,16.494
	c-11.218,7.029-21.796,15.213-31.439,24.322c-9.149,8.621-17.557,18.204-24.981,28.476c-8.714,12.016-16.162,25.191-22.143,39.188
	c-5.498,13.053-9.609,26.586-12.221,40.228c-1.808,9.427-2.892,18.998-3.301,28.502H285.415c-0.271-11.49-1.304-26.276-3.238-36.741
	c-2.338-12.795-5.953-25.416-10.746-37.511c-4.415-11.155-9.962-22.114-16.494-32.582c-7.024-11.209-15.207-21.787-24.322-31.439
	c-8.621-9.152-18.204-17.557-28.476-24.978c-12.016-8.714-25.191-16.162-39.188-22.143c-13.033-5.495-26.569-9.607-40.228-12.223
	c-8.772-1.684-17.681-2.734-26.555-3.207V493.408c10.358-0.297,20.662-1.336,30.695-3.189c12.789-2.338,25.41-5.953,37.514-10.745
	c11.166-4.421,22.126-9.97,32.579-16.497c11.209-7.021,21.79-15.205,31.439-24.32c9.143-8.614,17.551-18.197,24.978-28.474
	c8.712-12.008,16.159-25.183,22.143-39.188c5.495-13.038,9.607-26.572,12.223-40.229c1.637-8.533,2.679-17.185,3.171-25.797H913.08z
	 M225.124,768.419c6.362,7.062,12.195,14.594,17.415,22.49l-58.101,33.41v-16.357L225.124,768.419z M247.191,798.306
	c4.419,7.429,8.311,15.086,11.622,22.873l-74.375,25.912v-12.7L247.191,798.306z M184.438,856.33l77.596-27.034
	c3.259,8.792,5.861,17.839,7.771,27.022l-85.367,13.273V856.33z M246.433,399.715l-61.995-45.477v-18.918l78.579,35.012
	C258.318,380.692,252.762,390.534,246.433,399.715z M266.429,362.297l-81.991-36.533v-7.279l90.899,14.533
	C273.181,342.933,270.198,352.742,266.429,362.297z M184.438,365.065l56.894,41.736c-5.482,7.233-11.466,14.057-17.876,20.383
	l-39.018-40.147V365.065z M277.018,324.449l-92.579-14.802v-4.678h94.824C278.867,311.468,278.107,317.982,277.018,324.449z
	 M178.297,393.238l38.805,39.928c-7.06,6.362-14.592,12.194-22.492,17.413l-32.974-57.341H178.297z M151.566,393.238l35.649,61.993
	c-7.422,4.418-15.078,8.309-22.87,11.625l-25.65-73.617H151.566z M129.454,393.238l26.772,76.838
	c-8.795,3.259-17.843,5.86-27.023,7.77l-13.155-84.608H129.454z M107.212,393.238l13.403,86.2
	c-8.034,1.297-16.213,2.081-24.446,2.331v-88.532H107.212z M96.169,706.221c6.757,0.384,13.525,1.15,20.237,2.28l-14.691,91.884
	h-5.546V706.221z M124.978,710.183c9.913,2.156,19.722,5.141,29.276,8.908l-36.224,81.295h-7.475L124.978,710.183z M162.29,722.502
	c10.354,4.696,20.197,10.252,29.383,16.585l-44.967,61.299h-19.12L162.29,722.502z M198.757,744.186
	c7.23,5.479,14.055,11.464,20.382,17.877l-39.43,38.323h-22.176L198.757,744.186z M184.438,878.426l86.966-13.522
	c1.331,9.09,2.129,20.839,2.368,30.494h-89.335V878.426z M1138.362,848.109v80.268h-80.268v-21.341h59.052v-58.927H1138.362z
	 M1058.094,895.397v-47.288h47.413v47.288H1058.094z M1105.507,836.471h-59.052v58.927h-21.503v-80.43h80.555V836.471z
	 M1138.362,396.181v407.149h-21.216V396.181H1138.362z M1058.094,271.623h80.268v80.266h-21.216v-58.559h-59.052V271.623z
	 M1058.094,304.969h47.413v46.921h-47.413V304.969z M1046.456,304.969v58.559h59.052v21.015h-80.555v-79.573H1046.456z
	 M184.438,271.623h828.876v21.708H184.438V271.623z M61.638,351.89v-80.266h80.268v21.708H84.531v58.559H61.638z M141.906,304.969
	v46.921H96.169v-46.921H141.906z M96.169,363.528h57.375v-58.559H172.8V381.6H96.169V363.528z M61.638,800.386V393.238h22.893
	v407.147H61.638z M96.169,812.024H172.8v83.373h-19.256v-58.927H96.169V812.024z M96.169,848.109h45.737v47.288H96.169V848.109z
	 M61.638,928.377v-80.268h22.893v58.927h57.375v21.341H61.638z"/>
</svg>
